<svg width="20" height="20" viewBox="0 0 20 20" fill="none" xmlns="http://www.w3.org/2000/svg">
<path fill-rule="evenodd" clip-rule="evenodd" d="M7.28209 8.77729C6.7215 9.45163 6.41429 10.31 6.4161 11.1971C6.41774 11.8058 6.5639 12.4049 6.84189 12.9423C7.11988 13.4798 7.52129 13.9393 8.01126 14.2811C8.12238 14.3595 8.23806 14.4308 8.35765 14.4947C8.59632 14.8456 8.76419 15.2421 8.85135 15.6607C8.93851 16.0794 8.94319 16.5118 8.86512 16.9323C8.71963 15.8586 7.19376 14.4502 6.51309 14.0923C5.83243 13.7344 6.51309 15.4082 6.51309 15.4082C6.51309 15.4082 5.3646 14.5605 4.33093 12.9941C4.31699 12.973 4.30313 12.9519 4.28935 12.931C3.62867 11.9293 3.1492 11.2023 2.13162 10.9219C3.11722 10.5875 4.55596 11.3538 4.55596 11.3538C4.25113 9.93645 2.75644 8.72209 2.75644 8.72209C2.13463 7.23542 1.89602 5.60908 2.06365 4C2.66984 6.46254 5.60208 8.04903 7.28209 8.77729ZM13.6042 11.1971C13.606 10.31 13.2988 9.45163 12.7382 8.77729C14.4183 8.04903 17.3505 6.46254 17.9567 4C18.1243 5.60908 17.8857 7.23542 17.2639 8.72209C17.2639 8.72209 15.7692 9.93645 15.4644 11.3538C15.4644 11.3538 16.9031 10.5875 17.8887 10.9219C16.8711 11.2023 16.3917 11.9293 15.731 12.931L15.6894 12.9941C14.6557 14.5605 13.5072 15.4082 13.5072 15.4082C13.5072 15.4082 14.1879 13.7344 13.5072 14.0923C12.8266 14.4502 11.3007 15.8586 11.1552 16.9323C11.0771 16.5118 11.0818 16.0794 11.169 15.6607C11.2561 15.2421 11.424 14.8456 11.6627 14.4947C11.7823 14.4308 11.898 14.3595 12.0091 14.2811C12.4991 13.9393 12.9005 13.4798 13.1785 12.9423C13.4564 12.4049 13.6026 11.8058 13.6042 11.1971ZM10.0364 13.811C11.4052 13.811 12.5149 12.6702 12.5149 11.263C12.5149 9.85575 11.4052 8.71497 10.0364 8.71497C8.66758 8.71497 7.55794 9.85575 7.55794 11.263C7.55794 12.6702 8.66758 13.811 10.0364 13.811Z" fill="#149C3A"/>
<path d="M15.5 11V10.5H15H13H12.5V11V12.5H11H10.5V13V15V15.5H11H12.5V17V17.5H13H15H15.5V17V15.5H17H17.5V15V13V12.5H17H15.5V11Z" fill="white" stroke="#0B0B23"/>
</svg>
