<?xml version="1.0" encoding="UTF-8"?>
<svg width="27px" height="17px" viewBox="0 0 27 17" version="1.1" xmlns="http://www.w3.org/2000/svg" xmlns:xlink="http://www.w3.org/1999/xlink">
    <!-- Generator: Sketch 52.6 (67491) - http://www.bohemiancoding.com/sketch -->
    <title>eun-searchbar</title>
    <desc>Created with Sketch.</desc>
    <g id="Design" stroke="none" stroke-width="1" fill="none" fill-rule="evenodd">
        <g id="playground" transform="translate(-577.000000, -2022.000000)">
            <g id="eun-searchbar" transform="translate(577.000000, 2022.000000)">
                <rect id="Rectangle-Copy-65" fill="#1274AE" fill-rule="nonzero" x="0" y="0" width="27" height="17"></rect>
                <path d="M5,11.003 L5,5 L9.248,5 L9.248,6.098 L6.278,6.098 L6.278,7.403 L9.185,7.403 L9.185,8.501 L6.278,8.501 L6.278,9.896 L9.248,9.896 L9.248,11.003 L5,11.003 Z M10.247,8.609 L10.247,5 L11.543,5 L11.543,8.564 C11.543,9.401 12.002,9.977 12.938,9.977 C13.856,9.977 14.315,9.401 14.315,8.564 L14.315,5 L15.611,5 L15.611,8.6 C15.611,10.094 14.756,11.111 12.938,11.111 C11.102,11.111 10.247,10.085 10.247,8.609 Z M20.939,11.003 L18.077,6.971 L18.077,11.003 L16.799,11.003 L16.799,5 L18.113,5 L20.894,8.888 L20.894,5 L22.172,5 L22.172,11.003 L20.939,11.003 Z" id="EUN-Copy-3" fill="#FFFFFF"></path>
            </g>
        </g>
    </g>
</svg>