<svg xmlns="http://www.w3.org/2000/svg" width="240" height="311" viewBox="0 0 240 311"><g><g><path fill="#f8b218" d="M107.134 0h-54.86a7.854 7.854 0 0 0-6.93 4.184L.923 88.001a7.955 7.955 0 0 0-.249 6.93l93.346 211.35c3.768 8.527 16.534 4.593 14.913-4.594L72.259 94.097a7.946 7.946 0 0 1 .804-5.105l41.001-77.364C116.856 6.361 113.065 0 107.134 0"/></g><g><path fill="#f8b218" d="M239.075 87.776L194.76 4.189A7.869 7.869 0 0 0 187.816 0h-54.939c-5.94 0-9.736 6.368-6.94 11.637l40.368 76.139a7.943 7.943 0 0 1 0 7.448l-40.368 76.139c-2.796 5.273 1 11.637 6.94 11.637h54.939a7.869 7.869 0 0 0 6.943-4.189l44.316-83.587a7.962 7.962 0 0 0 0-7.448"/></g></g></svg>